<?xml version="1.0" standalone="no"?>
<!DOCTYPE svg PUBLIC "-//W3C//DTD SVG 20010904//EN"
 "http://www.w3.org/TR/2001/REC-SVG-20010904/DTD/svg10.dtd">
<svg version="1.0" xmlns="http://www.w3.org/2000/svg"
 width="260.000000pt" height="260.000000pt" viewBox="0 0 260.000000 260.000000"
 preserveAspectRatio="xMidYMid meet">
<metadata>
Created by potrace 1.11, written by Peter Selinger 2001-2013
</metadata>
<g transform="translate(0.000000,260.000000) scale(0.100000,-0.100000)"
fill="#000000" stroke="none">
<path d="M1935 2220 c-212 -44 -423 -208 -523 -406 -34 -68 -101 -237 -116
-295 -13 -50 -14 -33 -13 221 0 298 -5 336 -53 372 -53 39 -205 40 -301 1 -40
-16 -43 -20 -39 -62 1 -15 -7 -31 -20 -41 -21 -16 -22 -24 -21 -128 0 -61 3
-135 6 -164 2 -29 7 -84 10 -123 12 -151 15 -181 20 -205 3 -14 7 -54 10 -90
l6 -65 -53 -3 c-62 -3 -158 -18 -251 -38 -19 -4 -27 -1 -28 8 0 7 -2 27 -4 43
-1 17 -6 77 -9 135 -4 58 -9 121 -11 140 -2 19 -7 76 -10 125 -13 192 -32 263
-92 343 -53 70 -162 94 -268 57 -68 -23 -75 -31 -68 -68 5 -25 2 -34 -20 -51
-24 -19 -25 -24 -17 -61 24 -98 71 -343 85 -440 3 -22 10 -67 15 -100 5 -33
12 -78 15 -100 3 -22 10 -69 15 -105 5 -36 12 -83 15 -105 3 -22 7 -51 10 -65
2 -14 6 -47 10 -75 13 -98 16 -123 40 -295 9 -63 18 -126 20 -140 2 -14 7 -47
11 -75 5 -27 9 -53 10 -57 1 -5 2 -18 3 -29 2 -33 29 -5 37 38 4 21 11 32 18
30 7 -3 21 10 31 29 10 19 21 34 24 34 3 1 17 9 29 20 23 19 30 35 31 73 1 9
10 25 21 34 11 10 20 27 20 40 0 12 5 25 10 28 6 3 10 15 10 26 0 10 5 19 10
19 6 0 10 14 10 31 0 18 4 28 10 24 7 -4 10 6 8 29 -1 19 0 37 2 40 7 6 289
82 335 90 l41 7 23 -98 c41 -172 120 -383 143 -383 5 0 12 9 15 20 3 10 14 22
24 25 10 4 19 11 19 17 0 7 5 7 14 -1 11 -9 15 0 20 50 6 48 10 58 20 50 11
-9 15 -4 20 20 3 17 6 41 6 53 0 11 9 32 20 46 11 14 20 37 20 52 0 15 5 30
11 34 7 4 9 26 5 63 -3 31 -9 85 -11 121 l-6 65 16 -40 c9 -22 19 -50 22 -62
3 -13 9 -23 14 -23 5 0 9 -5 9 -10 0 -23 57 -99 125 -165 149 -147 345 -199
570 -151 80 17 216 92 271 150 51 54 94 120 123 192 18 44 36 88 41 99 23 53
39 152 35 224 -10 198 -29 280 -81 358 -29 42 -42 53 -72 58 -83 13 -367 -37
-672 -120 -8 -3 -40 -10 -70 -18 -35 -8 -50 -16 -42 -20 7 -5 69 3 138 18 166
35 186 28 40 -14 -98 -28 -116 -36 -111 -51 4 -14 -5 -19 -55 -30 -42 -9 -58
-16 -51 -23 7 -7 29 -6 68 3 75 17 75 17 79 5 2 -6 -16 -17 -41 -24 -25 -7
-45 -17 -45 -21 0 -17 117 -111 174 -140 l58 -30 226 6 226 5 -19 -23 c-26
-30 -40 -41 -107 -87 -181 -123 -406 -110 -566 34 -67 60 -104 134 -104 212
-2 109 12 156 67 227 51 67 75 90 132 126 95 60 239 80 346 47 l47 -15 24 31
c13 18 36 64 51 102 14 39 32 84 38 100 7 17 12 71 12 121 0 104 -10 123 -78
154 -41 19 -146 24 -212 10z"/>
</g>
</svg>
